<?xml version="1.0" encoding="UTF-8"?>
<svg xmlns="http://www.w3.org/2000/svg" xmlns:xlink="http://www.w3.org/1999/xlink" width="256pt" height="256pt" viewBox="0 0 256 256" version="1.1">
<g id="surface1">
<path style=" stroke:none;fill-rule:nonzero;fill:rgb(54.117647%,16.078431%,88.627451%);fill-opacity:1;" d="M 127.976562 0.03125 C 93.605469 0.03125 62.03125 13.128906 37.671875 37.484375 C 13.316406 61.839844 0.21875 93.417969 0.21875 127.789062 C 0.21875 162.160156 13.316406 193.734375 37.671875 218.089844 C 58.125 238.542969 83.6875 251.058594 112.617188 254.78125 C 123.976562 256.246094 141.390625 255.503906 153.804688 253.03125 C 198.496094 244.125 236.679688 209.507812 250.0625 165.765625 C 264.101562 119.871094 252.058594 71.261719 218.28125 37.484375 C 193.921875 13.128906 162.347656 0.03125 127.976562 0.03125 Z M 126.8125 10.050781 C 145.300781 9.882812 163.777344 14.070312 180.617188 22.507812 C 203.695312 34.070312 221.695312 52.066406 233.257812 75.148438 C 249.878906 108.324219 249.878906 147.253906 233.257812 180.429688 C 227.457031 192.003906 221.679688 200.144531 212.476562 209.703125 C 193.003906 229.929688 167.222656 242.261719 138.546875 245.0625 C 117.160156 247.152344 95.089844 242.964844 75.335938 233.066406 C 63.757812 227.269531 55.621094 221.492188 46.0625 212.289062 C 9.191406 176.796875 -0.304688 121.058594 22.695312 75.148438 C 36.523438 47.550781 60.273438 26.671875 89.363281 16.546875 C 101.507812 12.320312 114.164062 10.167969 126.8125 10.050781 Z M 126.8125 10.050781 "/>
<path style=" stroke:none;fill-rule:nonzero;fill:rgb(54.117647%,16.078431%,88.627451%);fill-opacity:1;" d="M 89.921875 211.953125 L 89.921875 184.785156 L 100.429688 184.785156 C 104.996094 184.785156 108.414062 186.136719 110.679688 188.84375 C 112.949219 191.550781 114.085938 194.683594 114.085938 198.238281 C 114.085938 202.300781 112.863281 205.605469 110.421875 208.152344 C 107.996094 210.6875 104.835938 211.953125 100.949219 211.953125 Z M 98.261719 205.703125 L 100.429688 205.703125 C 101.8125 205.703125 102.972656 205.035156 103.914062 203.691406 C 104.871094 202.351562 105.347656 200.527344 105.347656 198.21875 C 105.347656 196.242188 104.921875 194.535156 104.074219 193.105469 C 103.238281 191.671875 102.023438 190.953125 100.429688 190.953125 L 98.261719 190.953125 Z M 98.261719 205.703125 "/>
<path style=" stroke:none;fill-rule:nonzero;fill:rgb(54.117647%,16.078431%,88.627451%);fill-opacity:1;" d="M 129.347656 212.371094 C 125.527344 212.371094 122.40625 211.105469 119.992188 208.570312 C 117.589844 206.035156 116.390625 202.644531 116.390625 198.398438 C 116.390625 194.339844 117.539062 190.988281 119.832031 188.347656 C 122.140625 185.691406 125.339844 184.367188 129.425781 184.367188 C 133.207031 184.367188 136.289062 185.613281 138.664062 188.109375 C 141.050781 190.601562 142.246094 193.933594 142.246094 198.101562 C 142.246094 202.414062 141.042969 205.871094 138.644531 208.46875 C 136.242188 211.070312 133.140625 212.371094 129.347656 212.371094 Z M 129.308594 206.199219 C 130.714844 206.199219 131.722656 205.589844 132.332031 204.371094 C 132.957031 203.136719 133.269531 200.886719 133.269531 197.621094 C 133.269531 192.898438 132 190.535156 129.46875 190.535156 C 126.734375 190.535156 125.367188 193.230469 125.367188 198.617188 C 125.367188 203.671875 126.679688 206.199219 129.308594 206.199219 Z M 129.308594 206.199219 "/>
<path style=" stroke:none;fill-rule:nonzero;fill:rgb(54.117647%,16.078431%,88.627451%);fill-opacity:1;" d="M 160.710938 201.582031 L 168.335938 202.039062 C 167.976562 205.371094 166.742188 207.925781 164.632812 209.703125 C 162.535156 211.480469 159.957031 212.371094 156.890625 212.371094 C 153.203125 212.371094 150.222656 211.152344 147.953125 208.707031 C 145.683594 206.265625 144.550781 202.898438 144.550781 198.597656 C 144.550781 194.339844 145.625 190.902344 147.773438 188.285156 C 149.925781 185.671875 152.921875 184.367188 156.769531 184.367188 C 160.367188 184.367188 163.128906 185.359375 165.050781 187.351562 C 166.988281 189.34375 168.082031 191.984375 168.335938 195.273438 L 160.554688 195.691406 C 160.554688 193.875 160.203125 192.558594 159.5 191.75 C 158.808594 190.941406 157.992188 190.535156 157.050781 190.535156 C 154.421875 190.535156 153.109375 193.175781 153.109375 198.457031 C 153.109375 201.417969 153.445312 203.425781 154.125 204.488281 C 154.8125 205.550781 155.777344 206.082031 157.011719 206.082031 C 159.210938 206.082031 160.445312 204.582031 160.710938 201.582031 Z M 160.710938 201.582031 "/>
<path style=" stroke:none;fill-rule:nonzero;fill:rgb(54.117647%,16.078431%,88.627451%);fill-opacity:1;" d="M 78.632812 89.195312 C 73.988281 89.195312 70.230469 85.429688 70.230469 80.792969 C 70.230469 62.261719 85.304688 47.1875 103.835938 47.1875 C 107.589844 47.1875 111.289062 47.800781 114.808594 49.019531 C 119.191406 50.539062 121.527344 55.320312 120.007812 59.707031 C 118.480469 64.089844 113.691406 66.410156 109.320312 64.90625 C 107.566406 64.300781 105.726562 63.992188 103.835938 63.992188 C 94.570312 63.992188 87.035156 71.527344 87.035156 80.792969 C 87.035156 85.429688 83.277344 89.195312 78.632812 89.195312 Z M 78.632812 89.195312 "/>
<path style=" stroke:none;fill-rule:nonzero;fill:rgb(54.117647%,16.078431%,88.627451%);fill-opacity:1;" d="M 129.046875 89.195312 C 128.609375 89.195312 128.164062 89.160156 127.71875 89.09375 C 123.140625 88.363281 120.015625 84.0625 120.746094 79.472656 C 123.8125 60.160156 137.273438 47.1875 154.242188 47.1875 C 172.777344 47.1875 187.847656 62.261719 187.847656 80.792969 C 187.847656 85.429688 184.09375 89.195312 179.445312 89.195312 C 174.800781 89.195312 171.042969 85.429688 171.042969 80.792969 C 171.042969 71.527344 163.507812 63.992188 154.242188 63.992188 C 143.902344 63.992188 138.726562 73.347656 137.332031 82.113281 C 136.675781 86.246094 133.105469 89.195312 129.046875 89.195312 Z M 129.046875 89.195312 "/>
<path style=" stroke:none;fill-rule:nonzero;fill:rgb(54.117647%,16.078431%,88.627451%);fill-opacity:1;" d="M 129.039062 156.402344 C 127.214844 156.402344 125.382812 155.808594 123.871094 154.621094 C 118.378906 150.335938 70.230469 111.859375 70.230469 80.792969 C 70.230469 76.15625 73.988281 72.390625 78.632812 72.390625 C 83.277344 72.390625 87.035156 76.15625 87.035156 80.792969 C 87.035156 96.546875 110.984375 121.992188 129.039062 137.179688 C 147.09375 121.976562 171.042969 96.511719 171.042969 80.792969 C 171.042969 76.15625 174.800781 72.390625 179.445312 72.390625 C 184.09375 72.390625 187.847656 76.15625 187.847656 80.792969 C 187.847656 111.859375 139.699219 150.335938 134.207031 154.621094 C 132.695312 155.808594 130.863281 156.402344 129.039062 156.402344 Z M 129.039062 156.402344 "/>
</g>
</svg>
