<?xml version="1.0" encoding="UTF-8"?>
<svg xmlns="http://www.w3.org/2000/svg" xmlns:xlink="http://www.w3.org/1999/xlink" width="256pt" height="256pt" viewBox="0 0 256 256" version="1.1">
<g id="surface1">
<path style=" stroke:none;fill-rule:nonzero;fill:rgb(0%,65.490196%,39.607843%);fill-opacity:1;" d="M 127.976562 0.03125 C 93.605469 0.03125 62.03125 13.128906 37.671875 37.484375 C 13.316406 61.839844 0.21875 93.417969 0.21875 127.789062 C 0.21875 162.160156 13.316406 193.734375 37.671875 218.089844 C 58.125 238.542969 83.6875 251.058594 112.617188 254.78125 C 123.976562 256.246094 141.390625 255.503906 153.804688 253.03125 C 198.496094 244.125 236.679688 209.507812 250.0625 165.765625 C 264.101562 119.871094 252.058594 71.261719 218.28125 37.484375 C 193.921875 13.128906 162.347656 0.03125 127.976562 0.03125 Z M 126.8125 10.050781 C 145.300781 9.882812 163.777344 14.070312 180.617188 22.507812 C 203.695312 34.070312 221.695312 52.066406 233.257812 75.148438 C 249.878906 108.324219 249.878906 147.253906 233.257812 180.429688 C 227.457031 192.003906 221.679688 200.144531 212.476562 209.703125 C 193.003906 229.929688 167.222656 242.261719 138.546875 245.0625 C 117.160156 247.152344 95.089844 242.964844 75.335938 233.066406 C 63.757812 227.269531 55.621094 221.492188 46.0625 212.289062 C 9.191406 176.796875 -0.304688 121.058594 22.695312 75.148438 C 36.523438 47.550781 60.273438 26.671875 89.363281 16.546875 C 101.507812 12.320312 114.164062 10.167969 126.8125 10.050781 Z M 126.8125 10.050781 "/>
<path style=" stroke:none;fill-rule:nonzero;fill:rgb(0%,65.490196%,39.607843%);fill-opacity:1;" d="M 94.03125 193.386719 L 94.03125 208.613281 L 89.953125 208.613281 C 89.621094 207.484375 89.253906 206.539062 88.855469 205.769531 C 87.171875 207.945312 84.675781 209.03125 81.375 209.03125 C 77.871094 209.03125 74.992188 207.8125 72.734375 205.371094 C 70.480469 202.914062 69.351562 199.597656 69.351562 195.417969 C 69.351562 191.355469 70.4375 187.945312 72.613281 185.1875 C 74.804688 182.414062 78.054688 181.027344 82.367188 181.027344 C 85.605469 181.027344 88.214844 181.847656 90.191406 183.496094 C 92.167969 185.140625 93.449219 187.476562 94.03125 190.5 L 85.953125 191.296875 C 85.554688 188.472656 84.3125 187.058594 82.230469 187.058594 C 79.496094 187.058594 78.128906 189.660156 78.128906 194.859375 C 78.128906 198.003906 78.566406 200.082031 79.441406 201.089844 C 80.316406 202.085938 81.378906 202.582031 82.628906 202.582031 C 83.636719 202.582031 84.492188 202.277344 85.195312 201.667969 C 85.910156 201.058594 86.277344 200.222656 86.289062 199.160156 L 81.792969 199.160156 L 81.792969 193.386719 Z M 94.03125 193.386719 "/>
<path style=" stroke:none;fill-rule:nonzero;fill:rgb(0%,65.490196%,39.607843%);fill-opacity:1;" d="M 120.441406 181.445312 L 120.441406 199.4375 C 120.441406 202.847656 119.425781 205.304688 117.394531 206.800781 C 115.378906 208.289062 112.746094 209.03125 109.492188 209.03125 C 106.070312 209.03125 103.316406 208.316406 101.234375 206.882812 C 99.164062 205.449219 98.128906 203.113281 98.128906 199.875 L 98.128906 181.445312 L 106.609375 181.445312 L 106.609375 198.902344 C 106.609375 200.199219 106.878906 201.148438 107.421875 201.746094 C 107.980469 202.34375 108.863281 202.644531 110.070312 202.644531 C 111.078125 202.644531 111.902344 202.429688 112.539062 202.003906 C 113.1875 201.566406 113.574219 201.078125 113.695312 200.53125 C 113.824219 199.988281 113.890625 198.925781 113.890625 197.347656 L 113.890625 181.445312 Z M 120.441406 181.445312 "/>
<path style=" stroke:none;fill-rule:nonzero;fill:rgb(0%,65.490196%,39.607843%);fill-opacity:1;" d="M 133.234375 181.445312 L 133.234375 208.613281 L 124.894531 208.613281 L 124.894531 181.445312 Z M 133.234375 181.445312 "/>
<path style=" stroke:none;fill-rule:nonzero;fill:rgb(0%,65.490196%,39.607843%);fill-opacity:1;" d="M 137.929688 208.613281 L 137.929688 181.445312 L 148.4375 181.445312 C 153.003906 181.445312 156.417969 182.796875 158.6875 185.503906 C 160.957031 188.210938 162.09375 191.34375 162.09375 194.898438 C 162.09375 198.960938 160.871094 202.265625 158.429688 204.8125 C 156 207.347656 152.84375 208.613281 148.953125 208.613281 Z M 146.269531 202.363281 L 148.4375 202.363281 C 149.816406 202.363281 150.980469 201.695312 151.921875 200.355469 C 152.875 199.011719 153.355469 197.1875 153.355469 194.878906 C 153.355469 192.902344 152.929688 191.199219 152.078125 189.765625 C 151.242188 188.332031 150.03125 187.613281 148.4375 187.613281 L 146.269531 187.613281 Z M 146.269531 202.363281 "/>
<path style=" stroke:none;fill-rule:nonzero;fill:rgb(0%,65.490196%,39.607843%);fill-opacity:1;" d="M 186.050781 202.125 L 186.050781 208.613281 L 165.609375 208.613281 L 165.609375 181.445312 L 186.050781 181.445312 L 186.050781 187.714844 L 173.792969 187.714844 L 173.792969 191.65625 L 183.703125 191.65625 L 183.703125 197.6875 L 173.792969 197.6875 L 173.792969 202.125 Z M 186.050781 202.125 "/>
<path style=" stroke:none;fill-rule:nonzero;fill:rgb(0%,65.490196%,39.607843%);fill-opacity:1;" d="M 78.414062 89.402344 C 73.765625 89.402344 70.011719 85.640625 70.011719 81.003906 C 70.011719 62.46875 85.082031 47.398438 103.617188 47.398438 C 107.371094 47.398438 111.066406 48.011719 114.585938 49.230469 C 118.972656 50.75 121.308594 55.53125 119.789062 59.914062 C 118.257812 64.300781 113.46875 66.621094 109.101562 65.117188 C 107.34375 64.511719 105.503906 64.199219 103.617188 64.199219 C 94.347656 64.199219 86.8125 71.738281 86.8125 81.003906 C 86.8125 85.640625 83.058594 89.402344 78.414062 89.402344 Z M 78.414062 89.402344 "/>
<path style=" stroke:none;fill-rule:nonzero;fill:rgb(0%,65.490196%,39.607843%);fill-opacity:1;" d="M 128.828125 89.402344 C 128.390625 89.402344 127.945312 89.371094 127.5 89.304688 C 122.921875 88.570312 119.796875 84.269531 120.527344 79.683594 C 123.59375 60.371094 137.050781 47.398438 154.023438 47.398438 C 172.554688 47.398438 187.625 62.46875 187.625 81.003906 C 187.625 85.640625 183.871094 89.402344 179.226562 89.402344 C 174.578125 89.402344 170.824219 85.640625 170.824219 81.003906 C 170.824219 71.738281 163.289062 64.199219 154.023438 64.199219 C 143.679688 64.199219 138.503906 73.558594 137.109375 82.320312 C 136.457031 86.457031 132.886719 89.402344 128.828125 89.402344 Z M 128.828125 89.402344 "/>
<path style=" stroke:none;fill-rule:nonzero;fill:rgb(0%,65.490196%,39.607843%);fill-opacity:1;" d="M 128.820312 156.613281 C 126.996094 156.613281 125.164062 156.015625 123.652344 154.832031 C 118.15625 150.546875 70.011719 112.070312 70.011719 81.003906 C 70.011719 76.367188 73.765625 72.601562 78.414062 72.601562 C 83.058594 72.601562 86.8125 76.367188 86.8125 81.003906 C 86.8125 96.753906 110.765625 122.203125 128.820312 137.390625 C 146.871094 122.183594 170.824219 96.722656 170.824219 81.003906 C 170.824219 76.367188 174.578125 72.601562 179.226562 72.601562 C 183.871094 72.601562 187.625 76.367188 187.625 81.003906 C 187.625 112.070312 139.480469 150.546875 133.984375 154.832031 C 132.472656 156.015625 130.640625 156.613281 128.820312 156.613281 Z M 128.820312 156.613281 "/>
</g>
</svg>
