<?xml version="1.0" encoding="UTF-8"?>
<svg xmlns="http://www.w3.org/2000/svg" xmlns:xlink="http://www.w3.org/1999/xlink" width="256pt" height="256pt" viewBox="0 0 256 256" version="1.1">
<g id="surface1">
<path style=" stroke:none;fill-rule:nonzero;fill:rgb(27.45098%,49.803922%,84.313725%);fill-opacity:1;" d="M 127.976562 0.03125 C 93.605469 0.03125 62.03125 13.128906 37.671875 37.484375 C 13.316406 61.839844 0.21875 93.417969 0.21875 127.789062 C 0.21875 162.160156 13.316406 193.734375 37.671875 218.089844 C 58.125 238.542969 83.6875 251.058594 112.617188 254.78125 C 123.976562 256.246094 141.390625 255.503906 153.804688 253.03125 C 198.496094 244.125 236.679688 209.507812 250.0625 165.765625 C 264.101562 119.871094 252.058594 71.261719 218.28125 37.484375 C 193.921875 13.128906 162.347656 0.03125 127.976562 0.03125 Z M 126.8125 10.050781 C 145.300781 9.882812 163.777344 14.070312 180.617188 22.507812 C 203.695312 34.070312 221.695312 52.066406 233.257812 75.148438 C 249.878906 108.324219 249.878906 147.253906 233.257812 180.429688 C 227.457031 192.003906 221.679688 200.144531 212.476562 209.703125 C 193.003906 229.929688 167.222656 242.261719 138.546875 245.0625 C 117.160156 247.152344 95.089844 242.964844 75.335938 233.066406 C 63.757812 227.269531 55.621094 221.492188 46.0625 212.289062 C 9.191406 176.796875 -0.304688 121.058594 22.695312 75.148438 C 36.523438 47.550781 60.273438 26.671875 89.363281 16.546875 C 101.507812 12.320312 114.164062 10.167969 126.8125 10.050781 Z M 126.8125 10.050781 "/>
<path style=" stroke:none;fill-rule:nonzero;fill:rgb(27.45098%,49.803922%,84.313725%);fill-opacity:1;" d="M 65.660156 119.949219 C 59.882812 119.949219 55.210938 115.269531 55.210938 109.5 C 55.210938 86.441406 73.960938 67.6875 97.019531 67.6875 C 101.691406 67.6875 106.289062 68.453125 110.667969 69.96875 C 116.125 71.859375 119.03125 77.808594 117.140625 83.261719 C 115.238281 88.71875 109.28125 91.605469 103.84375 89.734375 C 101.660156 88.980469 99.371094 88.59375 97.019531 88.59375 C 85.488281 88.59375 76.113281 97.96875 76.113281 109.5 C 76.113281 115.269531 71.441406 119.949219 65.660156 119.949219 Z M 65.660156 119.949219 "/>
<path style=" stroke:none;fill-rule:nonzero;fill:rgb(27.45098%,49.803922%,84.313725%);fill-opacity:1;" d="M 128.386719 119.949219 C 127.84375 119.949219 127.289062 119.910156 126.734375 119.824219 C 121.039062 118.914062 117.148438 113.5625 118.058594 107.855469 C 121.875 83.828125 138.617188 67.6875 159.734375 67.6875 C 182.789062 67.6875 201.542969 86.441406 201.542969 109.5 C 201.542969 115.269531 196.871094 119.949219 191.089844 119.949219 C 185.308594 119.949219 180.636719 115.269531 180.636719 109.5 C 180.636719 97.96875 171.261719 88.59375 159.734375 88.59375 C 146.867188 88.59375 140.425781 100.238281 138.691406 111.140625 C 137.875 116.28125 133.433594 119.949219 128.386719 119.949219 Z M 128.386719 119.949219 "/>
<path style=" stroke:none;fill-rule:nonzero;fill:rgb(27.45098%,49.803922%,84.313725%);fill-opacity:1;" d="M 128.375 203.570312 C 126.109375 203.570312 123.828125 202.828125 121.949219 201.351562 C 115.113281 196.023438 55.210938 148.152344 55.210938 109.5 C 55.210938 103.726562 59.882812 99.046875 65.660156 99.046875 C 71.441406 99.046875 76.113281 103.726562 76.113281 109.5 C 76.113281 129.097656 105.914062 160.757812 128.375 179.652344 C 150.835938 160.734375 180.636719 129.054688 180.636719 109.5 C 180.636719 103.726562 185.308594 99.046875 191.089844 99.046875 C 196.871094 99.046875 201.542969 103.726562 201.542969 109.5 C 201.542969 148.152344 141.640625 196.023438 134.804688 201.351562 C 132.921875 202.828125 130.644531 203.570312 128.375 203.570312 Z M 128.375 203.570312 "/>
</g>
</svg>
